<?xml version="1.0" standalone="no"?>
<!DOCTYPE svg PUBLIC "-//W3C//DTD SVG 20010904//EN"
 "http://www.w3.org/TR/2001/REC-SVG-20010904/DTD/svg10.dtd">
<svg version="1.0" xmlns="http://www.w3.org/2000/svg"
 width="175.000000pt" height="175.000000pt" viewBox="0 0 175.000000 175.000000"
 preserveAspectRatio="xMidYMid meet">
<metadata>
Created by potrace 1.14, written by Peter Selinger 2001-2017
</metadata>
<g transform="translate(0.000000,175.000000) scale(0.100000,-0.100000)"
fill="#000000" stroke="none">
<path d="M992 1297 c-37 -10 -68 -19 -69 -21 -2 -1 2 -16 7 -33 l11 -30 42 14
c22 8 68 17 102 20 68 6 81 13 88 49 4 25 4 25 -55 22 -33 -1 -90 -11 -126
-21z"/>
<path d="M1190 1295 c-15 -38 -13 -41 23 -43 45 -3 85 -11 141 -29 46 -15 49
-14 69 6 21 21 21 21 2 35 -24 18 -118 45 -180 53 -41 5 -45 3 -55 -22z"/>
<path d="M812 1229 c-44 -23 -90 -51 -101 -63 l-20 -21 29 -17 c27 -16 30 -15
52 1 13 10 51 32 85 50 61 31 62 31 52 61 -6 16 -12 30 -14 30 -2 0 -39 -18
-83 -41z"/>
<path d="M1436 1224 c-18 -25 -18 -26 5 -42 13 -9 40 -34 60 -55 34 -35 39
-37 63 -26 14 7 26 17 26 23 0 11 -117 126 -128 126 -4 0 -15 -12 -26 -26z"/>
<path d="M621 1083 c-28 -31 -51 -61 -51 -65 0 -4 -95 -8 -210 -8 -160 0 -212
-3 -215 -12 -2 -7 -6 -30 -10 -50 -4 -24 -11 -38 -20 -38 -12 0 -14 9 -9 38 3
20 7 42 7 47 2 12 -83 20 -94 8 -4 -4 -10 -33 -14 -64 -6 -49 -4 -60 13 -77
16 -16 30 -20 61 -17 38 4 39 3 35 -23 -3 -15 -7 -33 -9 -39 -5 -15 -23 -14
205 -17 102 -2 187 -3 190 -4 3 -1 7 -12 7 -24 1 -13 9 -39 19 -59 15 -35 17
-36 45 -26 34 13 34 13 14 60 -8 20 -15 41 -15 46 0 5 29 9 65 8 61 -1 64 -2
67 -26 3 -23 7 -19 42 37 21 34 40 62 41 62 1 0 0 -13 -3 -28 -4 -28 -3 -28
44 -27 l48 1 11 52 c7 29 13 55 14 57 0 3 1 12 1 20 0 8 8 15 19 15 17 0 17
-4 8 -52 -17 -92 -17 -92 31 -93 24 0 45 2 47 5 2 4 11 42 20 86 9 43 18 87
21 97 5 17 -2 18 -113 15 l-118 -3 -5 -30 -5 -30 -53 69 c-46 61 -52 66 -52
42 0 -21 -5 -26 -26 -26 -24 0 -25 2 -13 18 8 9 26 29 42 43 l28 27 -30 21
-29 21 -51 -57z"/>
<path d="M1656 1098 c-9 -12 -16 -26 -16 -30 0 -10 30 -38 42 -38 6 0 1 8 -10
18 -29 25 -14 63 25 61 22 -1 23 -3 7 -6 -23 -4 -39 -39 -23 -49 5 -3 9 0 9 5
0 6 5 11 11 11 5 0 7 -4 4 -10 -3 -5 -1 -10 5 -10 6 0 10 6 9 13 -3 25 1 38
11 32 15 -9 12 -31 -6 -49 -8 -9 -12 -16 -7 -16 15 0 33 23 33 41 0 47 -67 65
-94 27z"/>
<path d="M1562 1088 c-15 -8 -21 -17 -16 -27 20 -49 18 -51 -30 -51 -43 0 -46
1 -46 27 0 28 0 28 -27 -10 -22 -31 -32 -37 -64 -37 -32 0 -41 -6 -69 -42
l-31 -43 7 43 7 43 -49 -3 -49 -3 -18 -90 c-9 -49 -15 -95 -13 -101 2 -6 19
-9 38 -8 18 1 39 3 46 3 6 1 11 4 10 9 -1 4 2 22 6 40 l8 33 21 -43 c22 -42
23 -43 70 -42 44 2 50 -1 72 -34 14 -20 26 -31 26 -24 1 6 2 18 3 24 0 7 10
14 21 17 17 3 18 1 5 -15 -8 -11 -25 -31 -38 -46 l-24 -26 26 -17 c14 -9 30
-15 35 -13 11 4 78 84 83 100 3 9 31 13 89 14 l84 1 3 121 3 122 -59 0 -59 0
-13 45 c-13 47 -20 51 -58 33z"/>
<path d="M1080 1030 c0 -17 7 -20 50 -20 43 0 50 3 50 20 0 17 -7 20 -50 20
-43 0 -50 -3 -50 -20z"/>
<path d="M1053 888 c-11 -54 -17 -98 -14 -99 34 -6 83 -3 90 5 5 6 12 28 15
48 3 21 10 57 16 80 15 68 15 69 -39 67 l-49 -2 -19 -99z"/>
<path d="M1345 619 c-33 -22 -70 -42 -83 -46 -20 -5 -22 -10 -17 -32 4 -14 9
-29 13 -33 10 -10 120 47 167 87 39 33 40 34 20 49 -28 22 -33 20 -100 -25z"/>
<path d="M588 638 c-16 -5 -28 -14 -28 -18 0 -16 68 -78 116 -106 l46 -27 19
24 c25 32 24 33 -16 52 -19 9 -51 32 -72 50 -33 30 -42 33 -65 25z"/>
<path d="M1130 529 c-36 -10 -77 -18 -92 -18 -30 -1 -32 -4 -42 -45 l-7 -28
48 5 c77 10 182 34 196 47 11 10 -10 60 -25 59 -7 -1 -42 -10 -78 -20z"/>
<path d="M761 506 c-21 -22 -21 -24 -4 -31 57 -23 212 -44 214 -29 0 5 3 21 5
35 4 25 2 26 -45 27 -27 1 -69 6 -93 12 -56 13 -51 13 -77 -14z"/>
</g>
</svg>
