<svg width="20" height="20" viewBox="0 0 20 20" fill="none" xmlns="http://www.w3.org/2000/svg">
<mask id="mask0_4040_18" style="mask-type:alpha" maskUnits="userSpaceOnUse" x="0" y="0" width="20" height="20">
<rect width="20" height="20" fill="#D9D9D9"/>
</mask>
<g mask="url(#mask0_4040_18)">
<path d="M10.0001 18.3332C8.38897 18.3332 7.01397 17.7637 5.87508 16.6248C4.73619 15.4859 4.16675 14.1109 4.16675 12.4998V7.49984C4.16675 5.88873 4.73619 4.51373 5.87508 3.37484C7.01397 2.23595 8.38897 1.6665 10.0001 1.6665C11.6112 1.6665 12.9862 2.23595 14.1251 3.37484C15.264 4.51373 15.8334 5.88873 15.8334 7.49984V12.4998C15.8334 14.1109 15.264 15.4859 14.1251 16.6248C12.9862 17.7637 11.6112 18.3332 10.0001 18.3332ZM10.8334 7.49984H14.1667C14.1667 6.49984 13.8508 5.61789 13.2188 4.854C12.5869 4.09012 11.7917 3.61095 10.8334 3.4165V7.49984ZM5.83341 7.49984H9.16675V3.4165C8.20842 3.61095 7.41328 4.09012 6.78133 4.854C6.14939 5.61789 5.83341 6.49984 5.83341 7.49984ZM10.0001 16.6665C11.1529 16.6665 12.1355 16.2603 12.948 15.4478C13.7605 14.6353 14.1667 13.6526 14.1667 12.4998V9.1665H5.83341V12.4998C5.83341 13.6526 6.23966 14.6353 7.05217 15.4478C7.86467 16.2603 8.8473 16.6665 10.0001 16.6665Z" fill="black"/>
<path d="M5.82812 7.49901L9.16897 7.48218L9.16056 3.39391C9.80089 3.28146 10.2129 3.34763 10.8266 3.39454L10.8463 7.4884L14.1637 7.47497L14.1906 9.16727L5.83705 9.17344L5.82812 7.49901Z" fill="#E81C23"/>
</g>
</svg>
