<?xml version="1.0" encoding="utf-8"?>
<!DOCTYPE xml>
<svg xmlns="http://www.w3.org/2000/svg" xmlns:xlink="http://www.w3.org/1999/xlink">
  <symbol viewBox="0 0 21 21" id="okay" fill="none" xmlns="http://www.w3.org/2000/svg">
    <path d="M1.5 12L8 18.5L20 1.5" stroke="#05FF00" stroke-width="2" />
  </symbol>
  <symbol id="main-menu" viewBox="0 0 25 17" fill="none" xmlns="http://www.w3.org/2000/svg">
    <rect x="5.5" y="2.5" width="17" height="1" fill="currentColor" stroke="currentColor"/>
    <path d="M0.5 3L5.5 5.88675V0.113249L0.5 3ZM5 3.5H15.5V2.5H5V3.5Z" fill="currentColor"/>
    <rect x="5.5" y="8.5" width="17" height="1" fill="currentColor" stroke="currentColor"/>
    <rect x="5.5" y="14.5" width="17" height="1" fill="currentColor" stroke="currentColor"/>
  </symbol>
  <symbol id="catalog" viewBox="0 0 22 22" fill="none" xmlns="http://www.w3.org/2000/svg">
    <rect x="3" y="13" width="6" height="6" stroke="currentColor" stroke-width="2"/>
    <rect x="3" y="3" width="6" height="6" stroke="currentColor" stroke-width="2"/>
    <path d="M16 13L16 19" stroke="currentColor" stroke-width="2"/>
    <path d="M13 16H19" stroke="currentColor" stroke-width="2"/>
    <rect x="13" y="3" width="6" height="6" stroke="currentColor" stroke-width="2"/>
  </symbol>
  <symbol id="search" viewBox="0 0 22 22" fill="none" xmlns="http://www.w3.org/2000/svg">
    <path d="M17.9667 19.25L12.1917 13.475C11.7333 13.8417 11.2063 14.1319 10.6104 14.3458C10.0146 14.5597 9.38056 14.6667 8.70833 14.6667C7.04306 14.6667 5.63368 14.0899 4.48021 12.9365C3.32674 11.783 2.75 10.3736 2.75 8.70833C2.75 7.04306 3.32674 5.63368 4.48021 4.48021C5.63368 3.32674 7.04306 2.75 8.70833 2.75C10.3736 2.75 11.783 3.32674 12.9365 4.48021C14.0899 5.63368 14.6667 7.04306 14.6667 8.70833C14.6667 9.38056 14.5597 10.0146 14.3458 10.6104C14.1319 11.2063 13.8417 11.7333 13.475 12.1917L19.25 17.9667L17.9667 19.25ZM8.70833 12.8333C9.85417 12.8333 10.8281 12.4323 11.6302 11.6302C12.4323 10.8281 12.8333 9.85417 12.8333 8.70833C12.8333 7.5625 12.4323 6.58854 11.6302 5.78646C10.8281 4.98438 9.85417 4.58333 8.70833 4.58333C7.5625 4.58333 6.58854 4.98438 5.78646 5.78646C4.98438 6.58854 4.58333 7.5625 4.58333 8.70833C4.58333 9.85417 4.98438 10.8281 5.78646 11.6302C6.58854 12.4323 7.5625 12.8333 8.70833 12.8333Z" fill="currentColor"/>
  </symbol>
  <symbol id="triangle-down" viewBox="0 0 9 7" fill="none" xmlns="http://www.w3.org/2000/svg">
    <path d="M4.5 6L1 1H8L4.5 6Z" stroke="currentColor"/>
  </symbol>
  <symbol id="favorite" viewBox="0 0 32 32" fill="none" xmlns="http://www.w3.org/2000/svg">
    <path d="M15.9987 26.4982L14.307 24.9815C12.3431 23.2121 10.7195 21.6857 9.4362 20.4023C8.15286 19.119 7.13203 17.9669 6.3737 16.9461C5.61536 15.9253 5.0855 14.9871 4.78411 14.1315C4.48273 13.276 4.33203 12.401 4.33203 11.5065C4.33203 9.67873 4.94453 8.15234 6.16953 6.92734C7.39453 5.70234 8.92092 5.08984 10.7487 5.08984C11.7598 5.08984 12.7223 5.30373 13.6362 5.73151C14.5501 6.15929 15.3376 6.76207 15.9987 7.53984C16.6598 6.76207 17.4473 6.15929 18.3612 5.73151C19.2751 5.30373 20.2376 5.08984 21.2487 5.08984C23.0765 5.08984 24.6029 5.70234 25.8279 6.92734C27.0529 8.15234 27.6654 9.67873 27.6654 11.5065C27.6654 12.401 27.5147 13.276 27.2133 14.1315C26.9119 14.9871 26.382 15.9253 25.6237 16.9461C24.8654 17.9669 23.8445 19.119 22.5612 20.4023C21.2779 21.6857 19.6543 23.2121 17.6904 24.9815L15.9987 26.4982ZM15.9987 23.3482C17.8654 21.676 19.4015 20.2419 20.607 19.0461C21.8126 17.8503 22.7654 16.81 23.4654 15.9253C24.1654 15.0405 24.6515 14.253 24.9237 13.5628C25.1959 12.8725 25.332 12.1871 25.332 11.5065C25.332 10.3398 24.9431 9.36762 24.1654 8.58984C23.3876 7.81207 22.4154 7.42318 21.2487 7.42318C20.3348 7.42318 19.489 7.68082 18.7112 8.19609C17.9334 8.71137 17.3987 9.36762 17.107 10.1648H14.8904C14.5987 9.36762 14.064 8.71137 13.2862 8.19609C12.5084 7.68082 11.6626 7.42318 10.7487 7.42318C9.58203 7.42318 8.60981 7.81207 7.83203 8.58984C7.05425 9.36762 6.66536 10.3398 6.66536 11.5065C6.66536 12.1871 6.80148 12.8725 7.0737 13.5628C7.34592 14.253 7.83203 15.0405 8.53203 15.9253C9.23203 16.81 10.1848 17.8503 11.3904 19.0461C12.5959 20.2419 14.132 21.676 15.9987 23.3482Z" fill="currentColor"/>
  </symbol>
  <symbol id="favorite-fill" viewBox="0 0 28 28" fill="none" xmlns="http://www.w3.org/2000/svg">
    <path d="M14.0002 24.4999L12.3085 22.9832C10.3446 21.2138 8.721 19.6874 7.43766 18.4041C6.15433 17.1207 5.1335 15.9686 4.37516 14.9478C3.61683 13.927 3.08697 12.9888 2.78558 12.1332C2.48419 11.2777 2.3335 10.4027 2.3335 9.50822C2.3335 7.68044 2.946 6.15405 4.171 4.92905C5.396 3.70405 6.92239 3.09155 8.75016 3.09155C9.76127 3.09155 10.7238 3.30544 11.6377 3.73322C12.5516 4.161 13.3391 4.76377 14.0002 5.54155C14.6613 4.76377 15.4488 4.161 16.3627 3.73322C17.2766 3.30544 18.2391 3.09155 19.2502 3.09155C21.0779 3.09155 22.6043 3.70405 23.8293 4.92905C25.0543 6.15405 25.6668 7.68044 25.6668 9.50822C25.6668 10.4027 25.5161 11.2777 25.2147 12.1332C24.9134 12.9888 24.3835 13.927 23.6252 14.9478C22.8668 15.9686 21.846 17.1207 20.5627 18.4041C19.2793 19.6874 17.6557 21.2138 15.6918 22.9832L14.0002 24.4999Z" fill="currentColor"/>
  </symbol>
  <symbol id="person" viewBox="0 0 32 32" fill="none" xmlns="http://www.w3.org/2000/svg">
    <path d="M15.9987 15.9987C14.532 15.9987 13.2765 15.4765 12.232 14.432C11.1876 13.3876 10.6654 12.132 10.6654 10.6654C10.6654 9.1987 11.1876 7.94314 12.232 6.8987C13.2765 5.85425 14.532 5.33203 15.9987 5.33203C17.4654 5.33203 18.7209 5.85425 19.7654 6.8987C20.8098 7.94314 21.332 9.1987 21.332 10.6654C21.332 12.132 20.8098 13.3876 19.7654 14.432C18.7209 15.4765 17.4654 15.9987 15.9987 15.9987ZM5.33203 26.6654V22.932C5.33203 22.1765 5.52648 21.482 5.91536 20.8487C6.30425 20.2154 6.82092 19.732 7.46536 19.3987C8.84314 18.7098 10.2431 18.1931 11.6654 17.8487C13.0876 17.5043 14.532 17.332 15.9987 17.332C17.4654 17.332 18.9098 17.5043 20.332 17.8487C21.7543 18.1931 23.1543 18.7098 24.532 19.3987C25.1765 19.732 25.6931 20.2154 26.082 20.8487C26.4709 21.482 26.6654 22.1765 26.6654 22.932V26.6654H5.33203ZM7.9987 23.9987H23.9987V22.932C23.9987 22.6876 23.9376 22.4654 23.8154 22.2654C23.6931 22.0654 23.532 21.9098 23.332 21.7987C22.132 21.1987 20.9209 20.7487 19.6987 20.4487C18.4765 20.1487 17.2431 19.9987 15.9987 19.9987C14.7543 19.9987 13.5209 20.1487 12.2987 20.4487C11.0765 20.7487 9.86536 21.1987 8.66536 21.7987C8.46536 21.9098 8.30425 22.0654 8.18203 22.2654C8.05981 22.4654 7.9987 22.6876 7.9987 22.932V23.9987ZM15.9987 13.332C16.732 13.332 17.3598 13.0709 17.882 12.5487C18.4043 12.0265 18.6654 11.3987 18.6654 10.6654C18.6654 9.93203 18.4043 9.30425 17.882 8.78203C17.3598 8.25981 16.732 7.9987 15.9987 7.9987C15.2654 7.9987 14.6376 8.25981 14.1154 8.78203C13.5931 9.30425 13.332 9.93203 13.332 10.6654C13.332 11.3987 13.5931 12.0265 14.1154 12.5487C14.6376 13.0709 15.2654 13.332 15.9987 13.332Z" fill="currentColor"/>
  </symbol>
  <symbol id="shopping-cart" viewBox="0 0 32 32" fill="none" xmlns="http://www.w3.org/2000/svg">
    <path d="M9.90638 27C9.2733 27 8.73134 26.7846 8.2805 26.3538C7.82967 25.9229 7.60425 25.405 7.60425 24.8C7.60425 24.195 7.82967 23.6771 8.2805 23.2463C8.73134 22.8154 9.2733 22.6 9.90638 22.6C10.5395 22.6 11.0814 22.8154 11.5323 23.2463C11.9831 23.6771 12.2085 24.195 12.2085 24.8C12.2085 25.405 11.9831 25.9229 11.5323 26.3538C11.0814 26.7846 10.5395 27 9.90638 27ZM21.417 27C20.7839 27 20.242 26.7846 19.7911 26.3538C19.3403 25.9229 19.1149 25.405 19.1149 24.8C19.1149 24.195 19.3403 23.6771 19.7911 23.2463C20.242 22.8154 20.7839 22.6 21.417 22.6C22.0501 22.6 22.5921 22.8154 23.0429 23.2463C23.4937 23.6771 23.7191 24.195 23.7191 24.8C23.7191 25.405 23.4937 25.9229 23.0429 26.3538C22.5921 26.7846 22.0501 27 21.417 27ZM8.92798 9.4L11.6905 14.9H19.748L22.9134 9.4H8.92798ZM7.83447 7.2H24.8127C25.2539 7.2 25.5896 7.38792 25.8198 7.76375C26.05 8.13958 26.0596 8.52 25.8486 8.905L21.7623 15.945C21.5513 16.3117 21.2683 16.5958 20.9134 16.7975C20.5585 16.9992 20.17 17.1 19.748 17.1H11.1726L9.90638 19.3H23.7191V21.5H9.90638C9.04308 21.5 8.39081 21.1379 7.94957 20.4137C7.50833 19.6896 7.48915 18.97 7.89202 18.255L9.44596 15.56L5.30213 7.2H3V5H6.74096L7.83447 7.2Z" fill="currentColor"/>
  </symbol>
  <symbol id="close" viewBox="0 0 24 24" fill="none" xmlns="http://www.w3.org/2000/svg">
    <path d="M18.8594 4.83984L4.71724 18.982" stroke="currentColor" stroke-width="1.7"/>
    <path d="M5.7315 3.46967L5.20117 2.93934L4.67084 3.46967L3.46876 4.67175L2.93843 5.20208L3.46876 5.73241L17.6109 19.8745L18.1412 20.4049L18.6716 19.8745L19.8736 18.6725L20.404 18.1421L19.8736 17.6118L5.7315 3.46967Z" fill="black" stroke="#EFEFEF" stroke-width="1.5"/>
  </symbol>
  <symbol id="arrow-right" viewBox="0 0 16 16" fill="none" xmlns="http://www.w3.org/2000/svg">
    <path d="M5.73517 3.33463L10.5918 8.0013L5.73517 12.668L4.87312 11.8396L8.8677 8.0013L4.87312 4.16297L5.73517 3.33463Z" fill="currentColor"/>
  </symbol>
  <symbol id="breadcrumbs-home" viewBox="0 0 16 16" fill="none" xmlns="http://www.w3.org/2000/svg">
    <path d="M3.99998 12.669H6.23077V8.7075H9.7692V12.669H12V6.66903L7.99998 3.65622L3.99998 6.66903V12.669ZM3 13.669V6.16905L7.99998 2.40625L13 6.16905V13.669H8.76922V9.70747H7.23075V13.669H3Z" fill="currentColor"/>
  </symbol>
  <symbol id="share" viewBox="0 0 28 28" fill="none" xmlns="http://www.w3.org/2000/svg">
    <path d="M21 25.6654C20.0278 25.6654 19.2014 25.3251 18.5208 24.6445C17.8403 23.964 17.5 23.1376 17.5 22.1654C17.5 22.0293 17.5097 21.8883 17.5292 21.7425C17.5486 21.5966 17.5778 21.4654 17.6167 21.3487L9.39167 16.5654C9.06111 16.857 8.69167 17.0855 8.28333 17.2508C7.875 17.4161 7.44722 17.4987 7 17.4987C6.02778 17.4987 5.20139 17.1584 4.52083 16.4779C3.84028 15.7973 3.5 14.9709 3.5 13.9987C3.5 13.0265 3.84028 12.2001 4.52083 11.5195C5.20139 10.839 6.02778 10.4987 7 10.4987C7.44722 10.4987 7.875 10.5813 8.28333 10.7466C8.69167 10.9119 9.06111 11.1404 9.39167 11.432L17.6167 6.6487C17.5778 6.53203 17.5486 6.40078 17.5292 6.25495C17.5097 6.10911 17.5 5.96814 17.5 5.83203C17.5 4.85981 17.8403 4.03342 18.5208 3.35286C19.2014 2.67231 20.0278 2.33203 21 2.33203C21.9722 2.33203 22.7986 2.67231 23.4792 3.35286C24.1597 4.03342 24.5 4.85981 24.5 5.83203C24.5 6.80425 24.1597 7.63064 23.4792 8.3112C22.7986 8.99175 21.9722 9.33203 21 9.33203C20.5528 9.33203 20.125 9.24939 19.7167 9.08411C19.3083 8.91884 18.9389 8.69037 18.6083 8.3987L10.3833 13.182C10.4222 13.2987 10.4514 13.4299 10.4708 13.5758C10.4903 13.7216 10.5 13.8626 10.5 13.9987C10.5 14.1348 10.4903 14.2758 10.4708 14.4216C10.4514 14.5674 10.4222 14.6987 10.3833 14.8154L18.6083 19.5987C18.9389 19.307 19.3083 19.0786 19.7167 18.9133C20.125 18.748 20.5528 18.6654 21 18.6654C21.9722 18.6654 22.7986 19.0056 23.4792 19.6862C24.1597 20.3668 24.5 21.1931 24.5 22.1654C24.5 23.1376 24.1597 23.964 23.4792 24.6445C22.7986 25.3251 21.9722 25.6654 21 25.6654ZM21 6.9987C21.3306 6.9987 21.6076 6.88689 21.8313 6.66328C22.0549 6.43967 22.1667 6.16259 22.1667 5.83203C22.1667 5.50148 22.0549 5.22439 21.8313 5.00078C21.6076 4.77717 21.3306 4.66536 21 4.66536C20.6694 4.66536 20.3924 4.77717 20.1687 5.00078C19.9451 5.22439 19.8333 5.50148 19.8333 5.83203C19.8333 6.16259 19.9451 6.43967 20.1687 6.66328C20.3924 6.88689 20.6694 6.9987 21 6.9987ZM7 15.1654C7.33056 15.1654 7.60764 15.0536 7.83125 14.8299C8.05486 14.6063 8.16667 14.3293 8.16667 13.9987C8.16667 13.6681 8.05486 13.3911 7.83125 13.1674C7.60764 12.9438 7.33056 12.832 7 12.832C6.66944 12.832 6.39236 12.9438 6.16875 13.1674C5.94514 13.3911 5.83333 13.6681 5.83333 13.9987C5.83333 14.3293 5.94514 14.6063 6.16875 14.8299C6.39236 15.0536 6.66944 15.1654 7 15.1654ZM21 23.332C21.3306 23.332 21.6076 23.2202 21.8313 22.9966C22.0549 22.773 22.1667 22.4959 22.1667 22.1654C22.1667 21.8348 22.0549 21.5577 21.8313 21.3341C21.6076 21.1105 21.3306 20.9987 21 20.9987C20.6694 20.9987 20.3924 21.1105 20.1687 21.3341C19.9451 21.5577 19.8333 21.8348 19.8333 22.1654C19.8333 22.4959 19.9451 22.773 20.1687 22.9966C20.3924 23.2202 20.6694 23.332 21 23.332Z" fill="currentColor"/>
  </symbol>
  <symbol id="check" viewBox="0 0 16 16" fill="none" xmlns="http://www.w3.org/2000/svg">
    <path d="M6 12.6998L2 8.69981L3.4 7.29981L6 9.89981L12.6 3.2998L14 4.6998L6 12.6998Z" fill="currentColor"/>
  </symbol>
  <symbol id="noncheck" viewBox="0 0 16 16" fill="none" xmlns="http://www.w3.org/2000/svg">
    <path d="M4.61935 12.6998L3.30005 11.3805L6.69253 7.98802L3.30005 4.6191L4.61935 3.2998L8.01183 6.69229L11.3807 3.2998L12.7 4.6191L9.30757 7.98802L12.7 11.3805L11.3807 12.6998L8.01183 9.30732L4.61935 12.6998Z" fill="currentColor"/>
  </symbol>
  <symbol id="star" viewBox="0 0 16 16" xmlns="http://www.w3.org/2000/svg">
    <path d="M4.63641 13.6283L5.45348 10.096L5.52132 9.80274L5.29387 9.60555L2.55303 7.22931L6.17625 6.91479L6.47631 6.88875L6.59356 6.61132L7.99967 3.28436L9.40578 6.61132L9.52304 6.88875L9.8231 6.91479L13.4463 7.22931L10.7055 9.60555L10.478 9.80274L10.5459 10.096L11.3629 13.6283L8.25794 11.7552L7.99967 11.5994L7.74141 11.7552L4.63641 13.6283Z"/>
  </symbol>
  <symbol id="highlighter" viewBox="0 0 16 16" fill="none" xmlns="http://www.w3.org/2000/svg">
    <path d="M9.06667 9.33333L7.33333 7.6L4 10.9333L5.73333 12.6667L9.06667 9.33333ZM8.28333 6.65L10.0167 8.38333L13.3333 5.06667L11.6 3.33333L8.28333 6.65ZM6.88333 6.18333L10.4833 9.78333L6.66667 13.6C6.4 13.8667 6.08889 14 5.73333 14C5.37778 14 5.06667 13.8667 4.8 13.6L4.76667 13.5667L4.33333 14H1L3.1 11.9L3.06667 11.8667C2.8 11.6 2.66667 11.2889 2.66667 10.9333C2.66667 10.5778 2.8 10.2667 3.06667 10L6.88333 6.18333ZM6.88333 6.18333L10.6667 2.4C10.9333 2.13333 11.2444 2 11.6 2C11.9556 2 12.2667 2.13333 12.5333 2.4L14.2667 4.13333C14.5333 4.4 14.6667 4.71111 14.6667 5.06667C14.6667 5.42222 14.5333 5.73333 14.2667 6L10.4833 9.78333L6.88333 6.18333Z" fill="currentColor"/>
  </symbol>
  <symbol id="product-box" viewBox="0 0 25 24" fill="none" xmlns="http://www.w3.org/2000/svg">
    <path d="M4.50005 20V7.1L2.55005 2.85L4.35005 2L6.70005 7.05H18.3L20.65 2L22.45 2.85L20.5 7.1V20H4.50005ZM10.5 13H14.5C14.7834 13 15.0209 12.9042 15.2125 12.7125C15.4042 12.5208 15.5 12.2833 15.5 12C15.5 11.7167 15.4042 11.4792 15.2125 11.2875C15.0209 11.0958 14.7834 11 14.5 11H10.5C10.2167 11 9.97922 11.0958 9.78755 11.2875C9.59588 11.4792 9.50005 11.7167 9.50005 12C9.50005 12.2833 9.59588 12.5208 9.78755 12.7125C9.97922 12.9042 10.2167 13 10.5 13ZM6.50005 18H18.5V9.05H6.50005V18Z" fill="black"/>
  </symbol>
  <symbol id="shelves" viewBox="0 0 24 24" fill="none" xmlns="http://www.w3.org/2000/svg">
    <path d="M3 23V1H5V3H19V1H21V23H19V21H5V23H3ZM5 11H7V7H13V11H19V5H5V11ZM5 19H11V15H17V19H19V13H5V19ZM9 11H11V9H9V11ZM13 19H15V17H13V19Z" fill="currentColor"/>
  </symbol>
  <symbol id="local-shiping" viewBox="0 0 24 24" fill="none" xmlns="http://www.w3.org/2000/svg">
    <path d="M6 20C5.16667 20 4.45833 19.7083 3.875 19.125C3.29167 18.5417 3 17.8333 3 17H1V6C1 5.45 1.19583 4.97917 1.5875 4.5875C1.97917 4.19583 2.45 4 3 4H17V8H20L23 12V17H21C21 17.8333 20.7083 18.5417 20.125 19.125C19.5417 19.7083 18.8333 20 18 20C17.1667 20 16.4583 19.7083 15.875 19.125C15.2917 18.5417 15 17.8333 15 17H9C9 17.8333 8.70833 18.5417 8.125 19.125C7.54167 19.7083 6.83333 20 6 20ZM6 18C6.28333 18 6.52083 17.9042 6.7125 17.7125C6.90417 17.5208 7 17.2833 7 17C7 16.7167 6.90417 16.4792 6.7125 16.2875C6.52083 16.0958 6.28333 16 6 16C5.71667 16 5.47917 16.0958 5.2875 16.2875C5.09583 16.4792 5 16.7167 5 17C5 17.2833 5.09583 17.5208 5.2875 17.7125C5.47917 17.9042 5.71667 18 6 18ZM3 15H3.8C4.08333 14.7 4.40833 14.4583 4.775 14.275C5.14167 14.0917 5.55 14 6 14C6.45 14 6.85833 14.0917 7.225 14.275C7.59167 14.4583 7.91667 14.7 8.2 15H15V6H3V15ZM18 18C18.2833 18 18.5208 17.9042 18.7125 17.7125C18.9042 17.5208 19 17.2833 19 17C19 16.7167 18.9042 16.4792 18.7125 16.2875C18.5208 16.0958 18.2833 16 18 16C17.7167 16 17.4792 16.0958 17.2875 16.2875C17.0958 16.4792 17 16.7167 17 17C17 17.2833 17.0958 17.5208 17.2875 17.7125C17.4792 17.9042 17.7167 18 18 18ZM17 13H21.25L19 10H17V13Z" fill="currentColor"/>
  </symbol>
  <symbol id="balance-wallet" viewBox="0 0 24 24" fill="none" xmlns="http://www.w3.org/2000/svg">
    <path d="M5 21C4.45 21 3.97917 20.8042 3.5875 20.4125C3.19583 20.0208 3 19.55 3 19V5C3 4.45 3.19583 3.97917 3.5875 3.5875C3.97917 3.19583 4.45 3 5 3H19C19.55 3 20.0208 3.19583 20.4125 3.5875C20.8042 3.97917 21 4.45 21 5V7.5H19V5H5V19H19V16.5H21V19C21 19.55 20.8042 20.0208 20.4125 20.4125C20.0208 20.8042 19.55 21 19 21H5ZM13 17C12.45 17 11.9792 16.8042 11.5875 16.4125C11.1958 16.0208 11 15.55 11 15V9C11 8.45 11.1958 7.97917 11.5875 7.5875C11.9792 7.19583 12.45 7 13 7H20C20.55 7 21.0208 7.19583 21.4125 7.5875C21.8042 7.97917 22 8.45 22 9V15C22 15.55 21.8042 16.0208 21.4125 16.4125C21.0208 16.8042 20.55 17 20 17H13ZM20 15V9H13V15H20ZM16 13.5C16.4167 13.5 16.7708 13.3542 17.0625 13.0625C17.3542 12.7708 17.5 12.4167 17.5 12C17.5 11.5833 17.3542 11.2292 17.0625 10.9375C16.7708 10.6458 16.4167 10.5 16 10.5C15.5833 10.5 15.2292 10.6458 14.9375 10.9375C14.6458 11.2292 14.5 11.5833 14.5 12C14.5 12.4167 14.6458 12.7708 14.9375 13.0625C15.2292 13.3542 15.5833 13.5 16 13.5Z" fill="currentColor"/>
  </symbol>
  <symbol id="verified-user" viewBox="0 0 24 24" fill="none" xmlns="http://www.w3.org/2000/svg">
    <path d="M10.95 15.55L16.6 9.9L15.175 8.475L10.95 12.7L8.85 10.6L7.425 12.025L10.95 15.55ZM12 22C9.68333 21.4167 7.77083 20.0875 6.2625 18.0125C4.75417 15.9375 4 13.6333 4 11.1V5L12 2L20 5V11.1C20 13.6333 19.2458 15.9375 17.7375 18.0125C16.2292 20.0875 14.3167 21.4167 12 22ZM12 19.9C13.7333 19.35 15.1667 18.25 16.3 16.6C17.4333 14.95 18 13.1167 18 11.1V6.375L12 4.125L6 6.375V11.1C6 13.1167 6.56667 14.95 7.7 16.6C8.83333 18.25 10.2667 19.35 12 19.9Z" fill="currentColor"/>
  </symbol>
  <symbol id="shopping-cart+" viewBox="0 0 32 32" fill="none" xmlns="http://www.w3.org/2000/svg">
    <path d="M6.90638 27C6.2733 27 5.73134 26.7846 5.2805 26.3538C4.82967 25.9229 4.60425 25.405 4.60425 24.8C4.60425 24.195 4.82967 23.6771 5.2805 23.2463C5.73134 22.8154 6.2733 22.6 6.90638 22.6C7.53947 22.6 8.08142 22.8154 8.53226 23.2463C8.98309 23.6771 9.20851 24.195 9.20851 24.8C9.20851 25.405 8.98309 25.9229 8.53226 26.3538C8.08142 26.7846 7.53947 27 6.90638 27ZM18.417 27C17.7839 27 17.242 26.7846 16.7911 26.3538C16.3403 25.9229 16.1149 25.405 16.1149 24.8C16.1149 24.195 16.3403 23.6771 16.7911 23.2463C17.242 22.8154 17.7839 22.6 18.417 22.6C19.0501 22.6 19.5921 22.8154 20.0429 23.2463C20.4937 23.6771 20.7191 24.195 20.7191 24.8C20.7191 25.405 20.4937 25.9229 20.0429 26.3538C19.5921 26.7846 19.0501 27 18.417 27ZM5.92798 9.4L8.69053 14.9H16.748L19.9134 9.4H5.92798ZM4.83447 7.2H21.8127C22.2539 7.2 22.5896 7.38792 22.8198 7.76375C23.05 8.13958 23.0596 8.52 22.8486 8.905L18.7623 15.945C18.5513 16.3117 18.2683 16.5958 17.9134 16.7975C17.5585 16.9992 17.17 17.1 16.748 17.1H8.17255L6.90638 19.3H20.7191V21.5H6.90638C6.04308 21.5 5.39081 21.1379 4.94957 20.4137C4.50833 19.6896 4.48915 18.97 4.89202 18.255L6.44596 15.56L2.30213 7.2H0V5H3.74096L4.83447 7.2Z" fill="currentColor"/>
    <path d="M30 13H28V15H26V17H28V19H30V17H32V15H30V13Z" fill="currentColor"/>
  </symbol>
  <symbol id="arrow-right-alt" viewBox="0 0 24 24" fill="none" xmlns="http://www.w3.org/2000/svg">
    <path d="M14 18L12.6 16.55L16.15 13H4V11H16.15L12.6 7.45L14 6L20 12L14 18Z" fill="currentColor"/>
  </symbol>
  <symbol id="calendar" viewBox="0 0 16 16" fill="none" xmlns="http://www.w3.org/2000/svg">
    <path d="M3.33333 14.6693C2.96667 14.6693 2.65278 14.5387 2.39167 14.2776C2.13056 14.0165 2 13.7026 2 13.3359V4.0026C2 3.63594 2.13056 3.32205 2.39167 3.06094C2.65278 2.79983 2.96667 2.66927 3.33333 2.66927H4V1.33594H5.33333V2.66927H10.6667V1.33594H12V2.66927H12.6667C13.0333 2.66927 13.3472 2.79983 13.6083 3.06094C13.8694 3.32205 14 3.63594 14 4.0026V13.3359C14 13.7026 13.8694 14.0165 13.6083 14.2776C13.3472 14.5387 13.0333 14.6693 12.6667 14.6693H3.33333ZM3.33333 13.3359H12.6667V6.66927H3.33333V13.3359ZM3.33333 5.33594H12.6667V4.0026H3.33333V5.33594ZM8 9.33594C7.81111 9.33594 7.65278 9.27205 7.525 9.14427C7.39722 9.01649 7.33333 8.85816 7.33333 8.66927C7.33333 8.48038 7.39722 8.32205 7.525 8.19427C7.65278 8.06649 7.81111 8.0026 8 8.0026C8.18889 8.0026 8.34722 8.06649 8.475 8.19427C8.60278 8.32205 8.66667 8.48038 8.66667 8.66927C8.66667 8.85816 8.60278 9.01649 8.475 9.14427C8.34722 9.27205 8.18889 9.33594 8 9.33594ZM5.33333 9.33594C5.14444 9.33594 4.98611 9.27205 4.85833 9.14427C4.73056 9.01649 4.66667 8.85816 4.66667 8.66927C4.66667 8.48038 4.73056 8.32205 4.85833 8.19427C4.98611 8.06649 5.14444 8.0026 5.33333 8.0026C5.52222 8.0026 5.68056 8.06649 5.80833 8.19427C5.93611 8.32205 6 8.48038 6 8.66927C6 8.85816 5.93611 9.01649 5.80833 9.14427C5.68056 9.27205 5.52222 9.33594 5.33333 9.33594ZM10.6667 9.33594C10.4778 9.33594 10.3194 9.27205 10.1917 9.14427C10.0639 9.01649 10 8.85816 10 8.66927C10 8.48038 10.0639 8.32205 10.1917 8.19427C10.3194 8.06649 10.4778 8.0026 10.6667 8.0026C10.8556 8.0026 11.0139 8.06649 11.1417 8.19427C11.2694 8.32205 11.3333 8.48038 11.3333 8.66927C11.3333 8.85816 11.2694 9.01649 11.1417 9.14427C11.0139 9.27205 10.8556 9.33594 10.6667 9.33594ZM8 12.0026C7.81111 12.0026 7.65278 11.9387 7.525 11.8109C7.39722 11.6832 7.33333 11.5248 7.33333 11.3359C7.33333 11.147 7.39722 10.9887 7.525 10.8609C7.65278 10.7332 7.81111 10.6693 8 10.6693C8.18889 10.6693 8.34722 10.7332 8.475 10.8609C8.60278 10.9887 8.66667 11.147 8.66667 11.3359C8.66667 11.5248 8.60278 11.6832 8.475 11.8109C8.34722 11.9387 8.18889 12.0026 8 12.0026ZM5.33333 12.0026C5.14444 12.0026 4.98611 11.9387 4.85833 11.8109C4.73056 11.6832 4.66667 11.5248 4.66667 11.3359C4.66667 11.147 4.73056 10.9887 4.85833 10.8609C4.98611 10.7332 5.14444 10.6693 5.33333 10.6693C5.52222 10.6693 5.68056 10.7332 5.80833 10.8609C5.93611 10.9887 6 11.147 6 11.3359C6 11.5248 5.93611 11.6832 5.80833 11.8109C5.68056 11.9387 5.52222 12.0026 5.33333 12.0026ZM10.6667 12.0026C10.4778 12.0026 10.3194 11.9387 10.1917 11.8109C10.0639 11.6832 10 11.5248 10 11.3359C10 11.147 10.0639 10.9887 10.1917 10.8609C10.3194 10.7332 10.4778 10.6693 10.6667 10.6693C10.8556 10.6693 11.0139 10.7332 11.1417 10.8609C11.2694 10.9887 11.3333 11.147 11.3333 11.3359C11.3333 11.5248 11.2694 11.6832 11.1417 11.8109C11.0139 11.9387 10.8556 12.0026 10.6667 12.0026Z" fill="currentColor"/>
  </symbol>
  <symbol id="calendar-clock" viewBox="0 0 18 18" fill="none" xmlns="http://www.w3.org/2000/svg">
    <path d="M3.75 6H14.25V4.5H3.75V6ZM3.75 16.5C3.3375 16.5 2.98438 16.3531 2.69062 16.0594C2.39688 15.7656 2.25 15.4125 2.25 15V4.5C2.25 4.0875 2.39688 3.73438 2.69062 3.44063C2.98438 3.14688 3.3375 3 3.75 3H4.5V1.5H6V3H12V1.5H13.5V3H14.25C14.6625 3 15.0156 3.14688 15.3094 3.44063C15.6031 3.73438 15.75 4.0875 15.75 4.5V8.75625C15.5125 8.64375 15.2687 8.55 15.0187 8.475C14.7687 8.4 14.5125 8.34375 14.25 8.30625V7.5H3.75V15H8.475C8.5625 15.275 8.66563 15.5375 8.78437 15.7875C8.90312 16.0375 9.04375 16.275 9.20625 16.5H3.75ZM13.5 17.25C12.4625 17.25 11.5781 16.8844 10.8469 16.1531C10.1156 15.4219 9.75 14.5375 9.75 13.5C9.75 12.4625 10.1156 11.5781 10.8469 10.8469C11.5781 10.1156 12.4625 9.75 13.5 9.75C14.5375 9.75 15.4219 10.1156 16.1531 10.8469C16.8844 11.5781 17.25 12.4625 17.25 13.5C17.25 14.5375 16.8844 15.4219 16.1531 16.1531C15.4219 16.8844 14.5375 17.25 13.5 17.25ZM14.7562 15.2812L15.2812 14.7563L13.875 13.35V11.25H13.125V13.65L14.7562 15.2812Z" fill="currentColor"/>
  </symbol>
  <symbol id="play-circle" viewBox="0 0 16 16" fill="none" xmlns="http://www.w3.org/2000/svg">
    <path d="M6.33203 11.0026L10.9987 8.0026L6.33203 5.0026V11.0026ZM7.9987 14.6693C7.07648 14.6693 6.20981 14.4943 5.3987 14.1443C4.58759 13.7943 3.88203 13.3193 3.28203 12.7193C2.68203 12.1193 2.20703 11.4137 1.85703 10.6026C1.50703 9.79149 1.33203 8.92483 1.33203 8.0026C1.33203 7.08038 1.50703 6.21372 1.85703 5.4026C2.20703 4.59149 2.68203 3.88594 3.28203 3.28594C3.88203 2.68594 4.58759 2.21094 5.3987 1.86094C6.20981 1.51094 7.07648 1.33594 7.9987 1.33594C8.92092 1.33594 9.78759 1.51094 10.5987 1.86094C11.4098 2.21094 12.1154 2.68594 12.7154 3.28594C13.3154 3.88594 13.7904 4.59149 14.1404 5.4026C14.4904 6.21372 14.6654 7.08038 14.6654 8.0026C14.6654 8.92483 14.4904 9.79149 14.1404 10.6026C13.7904 11.4137 13.3154 12.1193 12.7154 12.7193C12.1154 13.3193 11.4098 13.7943 10.5987 14.1443C9.78759 14.4943 8.92092 14.6693 7.9987 14.6693ZM7.9987 13.3359C9.48759 13.3359 10.7487 12.8193 11.782 11.7859C12.8154 10.7526 13.332 9.49149 13.332 8.0026C13.332 6.51371 12.8154 5.2526 11.782 4.21927C10.7487 3.18594 9.48759 2.66927 7.9987 2.66927C6.50981 2.66927 5.2487 3.18594 4.21536 4.21927C3.18203 5.2526 2.66536 6.51371 2.66536 8.0026C2.66536 9.49149 3.18203 10.7526 4.21536 11.7859C5.2487 12.8193 6.50981 13.3359 7.9987 13.3359Z" fill="currentColor"/>
  </symbol>
  <symbol id="filter" viewBox="0 0 24 24" fill="none" xmlns="http://www.w3.org/2000/svg">
    <path d="M11 21V15H13V17H21V19H13V21H11ZM3 19V17H9V19H3ZM7 15V13H3V11H7V9H9V15H7ZM11 13V11H21V13H11ZM15 9V3H17V5H21V7H17V9H15ZM3 7V5H13V7H3Z" fill="currentColor"/>
  </symbol>
  <symbol id="rotate-right" viewBox="0 0 24 24" fill="none" xmlns="http://www.w3.org/2000/svg">
    <path d="M13.05 22.0008V19.9508C13.6167 19.8674 14.1709 19.7174 14.7125 19.5008C15.2542 19.2841 15.7667 19.0008 16.25 18.6508L17.65 20.1008C16.95 20.6341 16.2167 21.0633 15.45 21.3883C14.6834 21.7133 13.8834 21.9174 13.05 22.0008ZM11.05 22.0008C8.75005 21.7008 6.84172 20.7049 5.32505 19.0133C3.80838 17.3216 3.05005 15.3341 3.05005 13.0508C3.05005 11.8008 3.28755 10.6299 3.76255 9.53828C4.23755 8.44661 4.87922 7.49661 5.68755 6.68828C6.49588 5.87995 7.44588 5.23828 8.53755 4.76328C9.62922 4.28828 10.8 4.05078 12.05 4.05078H12.2L10.65 2.50078L12.05 1.05078L16.05 5.05078L12.05 9.05078L10.65 7.65078L12.25 6.05078H12.05C10.1 6.05078 8.44588 6.72995 7.08755 8.08828C5.72922 9.44661 5.05005 11.1008 5.05005 13.0508C5.05005 14.7841 5.61672 16.3049 6.75005 17.6133C7.88338 18.9216 9.31672 19.7008 11.05 19.9508V22.0008ZM19.1 18.6508L17.65 17.2508C18 16.7674 18.2834 16.2549 18.5 15.7133C18.7167 15.1716 18.8667 14.6174 18.95 14.0508H21C20.9167 14.8841 20.7125 15.6841 20.3875 16.4508C20.0625 17.2174 19.6334 17.9508 19.1 18.6508ZM21 12.0508H18.95C18.8667 11.4841 18.7167 10.9299 18.5 10.3883C18.2834 9.84661 18 9.33412 17.65 8.85078L19.1 7.45078C19.6334 8.10078 20.0584 8.81745 20.375 9.60078C20.6917 10.3841 20.9 11.2008 21 12.0508Z" fill="currentColor"/>
  </symbol>
  <symbol id="download" viewBox="0 0 24 24" fill="none" xmlns="http://www.w3.org/2000/svg">
    <path d="M12 16L7 11L8.4 9.55L11 12.15V4H13V12.15L15.6 9.55L17 11L12 16ZM6 20C5.45 20 4.97917 19.8042 4.5875 19.4125C4.19583 19.0208 4 18.55 4 18V15H6V18H18V15H20V18C20 18.55 19.8042 19.0208 19.4125 19.4125C19.0208 19.8042 18.55 20 18 20H6Z" fill="currentColor"/>
  </symbol>
  <symbol id="percent" viewBox="0 0 20 20" fill="none" xmlns="http://www.w3.org/2000/svg">
    <path d="M6.25065 9.16536C5.4451 9.16536 4.7576 8.88064 4.18815 8.3112C3.61871 7.74175 3.33398 7.05425 3.33398 6.2487C3.33398 5.44314 3.61871 4.75564 4.18815 4.1862C4.7576 3.61675 5.4451 3.33203 6.25065 3.33203C7.05621 3.33203 7.74371 3.61675 8.31315 4.1862C8.8826 4.75564 9.16732 5.44314 9.16732 6.2487C9.16732 7.05425 8.8826 7.74175 8.31315 8.3112C7.74371 8.88064 7.05621 9.16536 6.25065 9.16536ZM6.25065 7.4987C6.59787 7.4987 6.89301 7.37717 7.13607 7.13411C7.37912 6.89106 7.50065 6.59592 7.50065 6.2487C7.50065 5.90148 7.37912 5.60634 7.13607 5.36328C6.89301 5.12023 6.59787 4.9987 6.25065 4.9987C5.90343 4.9987 5.60829 5.12023 5.36523 5.36328C5.12218 5.60634 5.00065 5.90148 5.00065 6.2487C5.00065 6.59592 5.12218 6.89106 5.36523 7.13411C5.60829 7.37717 5.90343 7.4987 6.25065 7.4987ZM13.7507 16.6654C12.9451 16.6654 12.2576 16.3806 11.6882 15.8112C11.1187 15.2418 10.834 14.5543 10.834 13.7487C10.834 12.9431 11.1187 12.2556 11.6882 11.6862C12.2576 11.1168 12.9451 10.832 13.7507 10.832C14.5562 10.832 15.2437 11.1168 15.8132 11.6862C16.3826 12.2556 16.6673 12.9431 16.6673 13.7487C16.6673 14.5543 16.3826 15.2418 15.8132 15.8112C15.2437 16.3806 14.5562 16.6654 13.7507 16.6654ZM13.7507 14.9987C14.0979 14.9987 14.393 14.8772 14.6361 14.6341C14.8791 14.3911 15.0007 14.0959 15.0007 13.7487C15.0007 13.4015 14.8791 13.1063 14.6361 12.8633C14.393 12.6202 14.0979 12.4987 13.7507 12.4987C13.4034 12.4987 13.1083 12.6202 12.8652 12.8633C12.6222 13.1063 12.5007 13.4015 12.5007 13.7487C12.5007 14.0959 12.6222 14.3911 12.8652 14.6341C13.1083 14.8772 13.4034 14.9987 13.7507 14.9987ZM4.50065 16.6654L3.33398 15.4987L15.5007 3.33203L16.6673 4.4987L4.50065 16.6654Z" fill="currentColor"/>
  </symbol>
  <symbol id="share-location" viewBox="0 0 24 24" fill="none" xmlns="http://www.w3.org/2000/svg">
    <path d="M12.9734 21.9469V19.9469C13.6734 19.8469 14.3526 19.6552 15.0109 19.3719C15.6693 19.0885 16.2901 18.7302 16.8734 18.2969L18.3234 19.7469C17.5401 20.3635 16.6984 20.8594 15.7984 21.2344C14.8984 21.6094 13.9568 21.8469 12.9734 21.9469ZM19.7234 18.2969L18.3234 16.8969C18.7568 16.3469 19.1068 15.7427 19.3734 15.0844C19.6401 14.426 19.8234 13.7302 19.9234 12.9969H21.9734C21.8401 14.0302 21.5859 14.9927 21.2109 15.8844C20.8359 16.776 20.3401 17.5802 19.7234 18.2969ZM19.9234 10.9969C19.8234 10.2469 19.6401 9.54271 19.3734 8.88438C19.1068 8.22604 18.7568 7.63021 18.3234 7.09688L19.7234 5.69688C20.3568 6.43021 20.8693 7.24687 21.2609 8.14687C21.6526 9.04688 21.8901 9.99687 21.9734 10.9969H19.9234ZM10.9734 21.9469C8.42344 21.6469 6.29427 20.5552 4.58594 18.6719C2.8776 16.7885 2.02344 14.5635 2.02344 11.9969C2.02344 9.41354 2.8776 7.18021 4.58594 5.29688C6.29427 3.41354 8.42344 2.33021 10.9734 2.04688V4.04688C8.97344 4.33021 7.3151 5.22188 5.99844 6.72188C4.68177 8.22188 4.02344 9.98021 4.02344 11.9969C4.02344 14.0135 4.68177 15.7677 5.99844 17.2594C7.3151 18.751 8.97344 19.6469 10.9734 19.9469V21.9469ZM16.9234 5.69688C16.3234 5.24688 15.6901 4.88021 15.0234 4.59687C14.3568 4.31354 13.6734 4.13021 12.9734 4.04688V2.04688C13.9568 2.13021 14.8984 2.35938 15.7984 2.73438C16.6984 3.10938 17.5401 3.61354 18.3234 4.24688L16.9234 5.69688ZM11.9984 16.9969C11.0318 16.1802 10.1234 15.3052 9.27344 14.3719C8.42344 13.4385 7.99844 12.3469 7.99844 11.0969C7.99844 9.96354 8.38594 8.99688 9.16094 8.19688C9.93594 7.39687 10.8818 6.99688 11.9984 6.99688C13.1151 6.99688 14.0609 7.39687 14.8359 8.19688C15.6109 8.99688 15.9984 9.96354 15.9984 11.0969C15.9984 12.3469 15.5734 13.4385 14.7234 14.3719C13.8734 15.3052 12.9651 16.1802 11.9984 16.9969ZM11.9984 11.9969C12.2984 11.9969 12.5526 11.8927 12.7609 11.6844C12.9693 11.476 13.0734 11.2219 13.0734 10.9219C13.0734 10.6385 12.9693 10.3885 12.7609 10.1719C12.5526 9.95521 12.2984 9.84688 11.9984 9.84688C11.6984 9.84688 11.4443 9.95521 11.2359 10.1719C11.0276 10.3885 10.9234 10.6385 10.9234 10.9219C10.9234 11.2219 11.0276 11.476 11.2359 11.6844C11.4443 11.8927 11.6984 11.9969 11.9984 11.9969Z" fill="currentColor"/>
  </symbol>
  <symbol id="call" viewBox="0 0 24 24" fill="none" xmlns="http://www.w3.org/2000/svg">
    <path d="M19.95 21C17.8667 21 15.8083 20.5458 13.775 19.6375C11.7417 18.7292 9.89167 17.4417 8.225 15.775C6.55833 14.1083 5.27083 12.2583 4.3625 10.225C3.45417 8.19167 3 6.13333 3 4.05C3 3.75 3.1 3.5 3.3 3.3C3.5 3.1 3.75 3 4.05 3H8.1C8.33333 3 8.54167 3.07917 8.725 3.2375C8.90833 3.39583 9.01667 3.58333 9.05 3.8L9.7 7.3C9.73333 7.56667 9.725 7.79167 9.675 7.975C9.625 8.15833 9.53333 8.31667 9.4 8.45L6.975 10.9C7.30833 11.5167 7.70417 12.1125 8.1625 12.6875C8.62083 13.2625 9.125 13.8167 9.675 14.35C10.1917 14.8667 10.7333 15.3458 11.3 15.7875C11.8667 16.2292 12.4667 16.6333 13.1 17L15.45 14.65C15.6 14.5 15.7958 14.3875 16.0375 14.3125C16.2792 14.2375 16.5167 14.2167 16.75 14.25L20.2 14.95C20.4333 15.0167 20.625 15.1375 20.775 15.3125C20.925 15.4875 21 15.6833 21 15.9V19.95C21 20.25 20.9 20.5 20.7 20.7C20.5 20.9 20.25 21 19.95 21ZM6.025 9L7.675 7.35L7.25 5H5.025C5.10833 5.68333 5.225 6.35833 5.375 7.025C5.525 7.69167 5.74167 8.35 6.025 9ZM14.975 17.95C15.625 18.2333 16.2875 18.4583 16.9625 18.625C17.6375 18.7917 18.3167 18.9 19 18.95V16.75L16.65 16.275L14.975 17.95Z" fill="currentColor"/>
  </symbol>
  <symbol id="schedule" viewBox="0 0 24 24" fill="none" xmlns="http://www.w3.org/2000/svg">
    <path d="M15.3 16.7L16.7 15.3L13 11.6V7H11V12.4L15.3 16.7ZM12 22C10.6167 22 9.31667 21.7375 8.1 21.2125C6.88333 20.6875 5.825 19.975 4.925 19.075C4.025 18.175 3.3125 17.1167 2.7875 15.9C2.2625 14.6833 2 13.3833 2 12C2 10.6167 2.2625 9.31667 2.7875 8.1C3.3125 6.88333 4.025 5.825 4.925 4.925C5.825 4.025 6.88333 3.3125 8.1 2.7875C9.31667 2.2625 10.6167 2 12 2C13.3833 2 14.6833 2.2625 15.9 2.7875C17.1167 3.3125 18.175 4.025 19.075 4.925C19.975 5.825 20.6875 6.88333 21.2125 8.1C21.7375 9.31667 22 10.6167 22 12C22 13.3833 21.7375 14.6833 21.2125 15.9C20.6875 17.1167 19.975 18.175 19.075 19.075C18.175 19.975 17.1167 20.6875 15.9 21.2125C14.6833 21.7375 13.3833 22 12 22ZM12 20C14.2167 20 16.1042 19.2208 17.6625 17.6625C19.2208 16.1042 20 14.2167 20 12C20 9.78333 19.2208 7.89583 17.6625 6.3375C16.1042 4.77917 14.2167 4 12 4C9.78333 4 7.89583 4.77917 6.3375 6.3375C4.77917 7.89583 4 9.78333 4 12C4 14.2167 4.77917 16.1042 6.3375 17.6625C7.89583 19.2208 9.78333 20 12 20Z" fill="currentColor"/>
  </symbol>
  <symbol id="calendar-today" viewBox="0 0 24 24" fill="none" xmlns="http://www.w3.org/2000/svg">
    <path d="M5 22C4.45 22 3.97917 21.8042 3.5875 21.4125C3.19583 21.0208 3 20.55 3 20V6C3 5.45 3.19583 4.97917 3.5875 4.5875C3.97917 4.19583 4.45 4 5 4H6V2H8V4H16V2H18V4H19C19.55 4 20.0208 4.19583 20.4125 4.5875C20.8042 4.97917 21 5.45 21 6V20C21 20.55 20.8042 21.0208 20.4125 21.4125C20.0208 21.8042 19.55 22 19 22H5ZM5 20H19V10H5V20ZM5 8H19V6H5V8Z" fill="currentColor"/>
  </symbol>
  <symbol id="drafts" viewBox="0 0 24 24" fill="none" xmlns="http://www.w3.org/2000/svg">
    <path d="M12 1L21.05 6.4C21.35 6.58333 21.5833 6.83333 21.75 7.15C21.9167 7.46667 22 7.8 22 8.15V19C22 19.55 21.8042 20.0208 21.4125 20.4125C21.0208 20.8042 20.55 21 20 21H4C3.45 21 2.97917 20.8042 2.5875 20.4125C2.19583 20.0208 2 19.55 2 19V8.15C2 7.8 2.08333 7.46667 2.25 7.15C2.41667 6.83333 2.65 6.58333 2.95 6.4L12 1ZM12 12.65L19.8 8L12 3.35L4.2 8L12 12.65ZM12 15L4 10.2V19H20V10.2L12 15Z" fill="currentColor"/>
  </symbol>
  <symbol id="visibility" viewBox="0 0 24 24" fill="none" xmlns="http://www.w3.org/2000/svg">
    <path d="M12 16C13.25 16 14.3125 15.5625 15.1875 14.6875C16.0625 13.8125 16.5 12.75 16.5 11.5C16.5 10.25 16.0625 9.1875 15.1875 8.3125C14.3125 7.4375 13.25 7 12 7C10.75 7 9.6875 7.4375 8.8125 8.3125C7.9375 9.1875 7.5 10.25 7.5 11.5C7.5 12.75 7.9375 13.8125 8.8125 14.6875C9.6875 15.5625 10.75 16 12 16ZM12 14.2C11.25 14.2 10.6125 13.9375 10.0875 13.4125C9.5625 12.8875 9.3 12.25 9.3 11.5C9.3 10.75 9.5625 10.1125 10.0875 9.5875C10.6125 9.0625 11.25 8.8 12 8.8C12.75 8.8 13.3875 9.0625 13.9125 9.5875C14.4375 10.1125 14.7 10.75 14.7 11.5C14.7 12.25 14.4375 12.8875 13.9125 13.4125C13.3875 13.9375 12.75 14.2 12 14.2ZM12 19C9.56667 19 7.35 18.3208 5.35 16.9625C3.35 15.6042 1.9 13.7833 1 11.5C1.9 9.21667 3.35 7.39583 5.35 6.0375C7.35 4.67917 9.56667 4 12 4C14.4333 4 16.65 4.67917 18.65 6.0375C20.65 7.39583 22.1 9.21667 23 11.5C22.1 13.7833 20.65 15.6042 18.65 16.9625C16.65 18.3208 14.4333 19 12 19ZM12 17C13.8833 17 15.6125 16.5042 17.1875 15.5125C18.7625 14.5208 19.9667 13.1833 20.8 11.5C19.9667 9.81667 18.7625 8.47917 17.1875 7.4875C15.6125 6.49583 13.8833 6 12 6C10.1167 6 8.3875 6.49583 6.8125 7.4875C5.2375 8.47917 4.03333 9.81667 3.2 11.5C4.03333 13.1833 5.2375 14.5208 6.8125 15.5125C8.3875 16.5042 10.1167 17 12 17Z" fill="currentColor"/>
  </symbol>
  <symbol id="google" viewBox="0 0 28 28" fill="none" xmlns="http://www.w3.org/2000/svg">
    <path d="M26.32 14.2969C26.32 13.3869 26.2383 12.5119 26.0867 11.6719H14V16.636H20.9067C20.6092 18.2402 19.705 19.5994 18.3458 20.5094V23.7294H22.4933C24.92 21.4952 26.32 18.2052 26.32 14.2969Z" fill="#4285F4"/>
    <path d="M13.9996 26.8325C17.4646 26.8325 20.3696 25.6833 22.4929 23.7233L18.3454 20.5033C17.1962 21.2733 15.7262 21.7283 13.9996 21.7283C10.6571 21.7283 7.82792 19.4708 6.81875 16.4375H2.53125V19.7625C4.64292 23.9567 8.98292 26.8325 13.9996 26.8325Z" fill="#34A853"/>
    <path d="M6.82047 16.436C6.5638 15.666 6.41797 14.8435 6.41797 13.9977C6.41797 13.1519 6.5638 12.3294 6.82047 11.5594V8.23438H2.53297C1.63464 10.0227 1.16718 11.9964 1.16797 13.9977C1.16797 16.0685 1.6638 18.0285 2.53297 19.761L6.82047 16.436Z" fill="#FBBC05"/>
    <path d="M13.9996 6.27604C15.8837 6.27604 17.5754 6.92354 18.9054 8.19521L22.5863 4.51438C20.3638 2.44354 17.4587 1.17188 13.9996 1.17188C8.98292 1.17188 4.64292 4.04771 2.53125 8.24188L6.81875 11.5669C7.82792 8.53354 10.6571 6.27604 13.9996 6.27604Z" fill="#EA4335"/>
  </symbol>
  <symbol id="facebook" viewBox="0 0 28 28" fill="none" xmlns="http://www.w3.org/2000/svg">
    <path d="M28 13.9982C28 6.26621 21.732 -0.00179863 14 -0.00179863C6.26801 -0.00179863 0 6.26621 0 13.9982C0 20.986 5.1196 26.7778 11.8125 27.8281V18.0451H8.25781V13.9982H11.8125V10.9138C11.8125 7.40508 13.9026 5.46695 17.1005 5.46695C18.6322 5.46695 20.2344 5.74039 20.2344 5.74039V9.1857H18.469C16.7299 9.1857 16.1875 10.2649 16.1875 11.372V13.9982H20.0703L19.4496 18.0451H16.1875V27.8281C22.8804 26.7778 28 20.986 28 13.9982Z" fill="#1877F2"/>
    <path d="M19.4496 18.0469L20.0703 14H16.1875V11.3738C16.1875 10.2667 16.7299 9.1875 18.469 9.1875H20.2344V5.74219C20.2344 5.74219 18.6322 5.46875 17.1005 5.46875C13.9026 5.46875 11.8125 7.40688 11.8125 10.9156V14H8.25781V18.0469H11.8125V27.8299C12.5253 27.9418 13.2558 28 14 28C14.7442 28 15.4747 27.9418 16.1875 27.8299V18.0469H19.4496Z" fill="white"/>
  </symbol>
  <symbol id="userlist" viewBox="0 0 24 24" fill="none" xmlns="http://www.w3.org/2000/svg">
    <path d="M16 14C15.1667 14 14.4583 13.7083 13.875 13.125C13.2917 12.5417 13 11.8333 13 11C13 10.1667 13.2917 9.45833 13.875 8.875C14.4583 8.29167 15.1667 8 16 8C16.8333 8 17.5417 8.29167 18.125 8.875C18.7083 9.45833 19 10.1667 19 11C19 11.8333 18.7083 12.5417 18.125 13.125C17.5417 13.7083 16.8333 14 16 14ZM10 20V18.1C10 17.75 10.0833 17.4167 10.25 17.1C10.4167 16.7833 10.65 16.5333 10.95 16.35C11.7 15.9 12.4958 15.5625 13.3375 15.3375C14.1792 15.1125 15.0667 15 16 15C16.9333 15 17.8208 15.1125 18.6625 15.3375C19.5042 15.5625 20.3 15.9 21.05 16.35C21.35 16.5333 21.5833 16.7833 21.75 17.1C21.9167 17.4167 22 17.75 22 18.1V20H10ZM12.15 18H19.85C19.2667 17.6667 18.65 17.4167 18 17.25C17.35 17.0833 16.6833 17 16 17C15.3167 17 14.65 17.0833 14 17.25C13.35 17.4167 12.7333 17.6667 12.15 18ZM16 12C16.2833 12 16.5208 11.9042 16.7125 11.7125C16.9042 11.5208 17 11.2833 17 11C17 10.7167 16.9042 10.4792 16.7125 10.2875C16.5208 10.0958 16.2833 10 16 10C15.7167 10 15.4792 10.0958 15.2875 10.2875C15.0958 10.4792 15 10.7167 15 11C15 11.2833 15.0958 11.5208 15.2875 11.7125C15.4792 11.9042 15.7167 12 16 12ZM3 14V12H11V14H3ZM3 6V4H15V6H3ZM11.1 10H3V8H12C11.7667 8.28333 11.5792 8.59167 11.4375 8.925C11.2958 9.25833 11.1833 9.61667 11.1 10Z" fill="currentColor"/>
  </symbol>
  <symbol id="time" viewBox="0 0 18 18" fill="none" xmlns="http://www.w3.org/2000/svg">
    <path d="M6 15H12V12.75C12 11.925 11.7063 11.2187 11.1187 10.6312C10.5312 10.0437 9.825 9.75 9 9.75C8.175 9.75 7.46875 10.0437 6.88125 10.6312C6.29375 11.2187 6 11.925 6 12.75V15ZM9 8.25C9.825 8.25 10.5312 7.95625 11.1187 7.36875C11.7063 6.78125 12 6.075 12 5.25V3H6V5.25C6 6.075 6.29375 6.78125 6.88125 7.36875C7.46875 7.95625 8.175 8.25 9 8.25ZM3 16.5V15H4.5V12.75C4.5 11.9875 4.67813 11.2719 5.03438 10.6031C5.39062 9.93437 5.8875 9.4 6.525 9C5.8875 8.6 5.39062 8.06562 5.03438 7.39687C4.67813 6.72812 4.5 6.0125 4.5 5.25V3H3V1.5H15V3H13.5V5.25C13.5 6.0125 13.3219 6.72812 12.9656 7.39687C12.6094 8.06562 12.1125 8.6 11.475 9C12.1125 9.4 12.6094 9.93437 12.9656 10.6031C13.3219 11.2719 13.5 11.9875 13.5 12.75V15H15V16.5H3Z" fill="currentColor"/>
  </symbol>
  <symbol id="logout" viewBox="0 0 20 20" fill="none" xmlns="http://www.w3.org/2000/svg">
    <path d="M4.16667 17.5C3.70833 17.5 3.31597 17.3368 2.98958 17.0104C2.66319 16.684 2.5 16.2917 2.5 15.8333V4.16667C2.5 3.70833 2.66319 3.31597 2.98958 2.98958C3.31597 2.66319 3.70833 2.5 4.16667 2.5H10V4.16667H4.16667V15.8333H10V17.5H4.16667ZM13.3333 14.1667L12.1875 12.9583L14.3125 10.8333H7.5V9.16667H14.3125L12.1875 7.04167L13.3333 5.83333L17.5 10L13.3333 14.1667Z" fill="currentColor"/>
  </symbol>
  <symbol id="edit" viewBox="0 0 20 20" fill="none" xmlns="http://www.w3.org/2000/svg">
    <path d="M4.16667 17.5C3.70833 17.5 3.31597 17.3368 2.98958 17.0104C2.66319 16.684 2.5 16.2917 2.5 15.8333V4.16667C2.5 3.70833 2.66319 3.31597 2.98958 2.98958C3.31597 2.66319 3.70833 2.5 4.16667 2.5H11.6042L9.9375 4.16667H4.16667V15.8333H15.8333V10.0417L17.5 8.375V15.8333C17.5 16.2917 17.3368 16.684 17.0104 17.0104C16.684 17.3368 16.2917 17.5 15.8333 17.5H4.16667ZM7.5 12.5V8.95833L15.1458 1.3125C15.3125 1.14583 15.5 1.02083 15.7083 0.9375C15.9167 0.854167 16.125 0.8125 16.3333 0.8125C16.5556 0.8125 16.7674 0.854167 16.9688 0.9375C17.1701 1.02083 17.3542 1.14583 17.5208 1.3125L18.6875 2.5C18.8403 2.66667 18.9583 2.85069 19.0417 3.05208C19.125 3.25347 19.1667 3.45833 19.1667 3.66667C19.1667 3.875 19.1285 4.07986 19.0521 4.28125C18.9757 4.48264 18.8542 4.66667 18.6875 4.83333L11.0417 12.5H7.5ZM9.16667 10.8333H10.3333L15.1667 6L14.5833 5.41667L13.9792 4.83333L9.16667 9.64583V10.8333Z" fill="currentColor"/>
  </symbol>
  <symbol id="changepass" viewBox="0 0 18 18" fill="none" xmlns="http://www.w3.org/2000/svg">
    <path d="M1.5 14.25V12.75H16.5V14.25H1.5ZM2.3625 9.7125L1.3875 9.15L2.025 8.025H0.75V6.9H2.025L1.3875 5.8125L2.3625 5.25L3 6.3375L3.6375 5.25L4.6125 5.8125L3.975 6.9H5.25V8.025H3.975L4.6125 9.15L3.6375 9.7125L3 8.5875L2.3625 9.7125ZM8.3625 9.7125L7.3875 9.15L8.025 8.025H6.75V6.9H8.025L7.3875 5.8125L8.3625 5.25L9 6.3375L9.6375 5.25L10.6125 5.8125L9.975 6.9H11.25V8.025H9.975L10.6125 9.15L9.6375 9.7125L9 8.5875L8.3625 9.7125ZM14.3625 9.7125L13.3875 9.15L14.025 8.025H12.75V6.9H14.025L13.3875 5.8125L14.3625 5.25L15 6.3375L15.6375 5.25L16.6125 5.8125L15.975 6.9H17.25V8.025H15.975L16.6125 9.15L15.6375 9.7125L15 8.5875L14.3625 9.7125Z" fill="currentColor"/>
  </symbol>
  <symbol id="facebook-soc" viewBox="0 0 24 24" fill="none" xmlns="http://www.w3.org/2000/svg">
    <path d="M12 0C5.373 0 0 5.373 0 12C0 18.627 5.373 24 12 24C18.627 24 24 18.627 24 12C24 5.373 18.627 0 12 0ZM15 8H13.65C13.112 8 13 8.221 13 8.778V10H15L14.791 12H13V19H10V12H8V10H10V7.692C10 5.923 10.931 5 13.029 5H15V8Z" fill="black"/>
  </symbol>
  <symbol id="x-soc" viewBox="0 0 24 24" fill="none" xmlns="http://www.w3.org/2000/svg">
    <path fill-rule="evenodd" clip-rule="evenodd" d="M12 24C18.6274 24 24 18.6274 24 12C24 5.37258 18.6274 0 12 0C5.37258 0 0 5.37258 0 12C0 18.6274 5.37258 24 12 24ZM5.31611 17.9992L7.42091 17.9974L11.2951 13.8259L14.6752 17.9952L19 18L13.4931 11.1018L18.1475 6.01552L16.0278 6L12.5028 9.84777L9.44287 6.01962L5 6.01957L10.2825 12.5713L5.31611 17.9992ZM7.50169 7.15763L8.78791 7.16262L16.4369 16.7718L15.2585 16.7768L7.50169 7.15763Z" fill="black"/>
  </symbol>
  <symbol id="youtube-soc" viewBox="0 0 24 24" fill="none" xmlns="http://www.w3.org/2000/svg">
    <path d="M12 0C5.373 0 0 5.373 0 12C0 18.627 5.373 24 12 24C18.627 24 24 18.627 24 12C24 5.373 18.627 0 12 0ZM16.441 16.892C14.339 17.036 9.657 17.036 7.558 16.892C5.282 16.736 5.017 15.622 5 12C5.017 8.371 5.285 7.264 7.558 7.108C9.657 6.964 14.34 6.964 16.441 7.108C18.718 7.264 18.982 8.378 19 12C18.982 15.629 18.715 16.736 16.441 16.892ZM10 9.658L14.917 11.996L10 14.342V9.658Z" fill="black"/>
  </symbol>
  <symbol id="arrow-top-right" viewBox="0 0 24 24" fill="none" xmlns="http://www.w3.org/2000/svg">
    <path d="M5 4V16H16.175L12.575 19.575L14 21L20 15L13.975 8.975L12.575 10.4L16.175 14H7V4H5Z" fill="currentColor"/>
  </symbol>
  <symbol id="delete" viewBox="0 0 16 16" fill="none" xmlns="http://www.w3.org/2000/svg">
    <path d="M4.66663 14C4.29996 14 3.98607 13.8694 3.72496 13.6083C3.46385 13.3472 3.33329 13.0333 3.33329 12.6667V4H2.66663V2.66667H5.99996V2H9.99996V2.66667H13.3333V4H12.6666V12.6667C12.6666 13.0333 12.5361 13.3472 12.275 13.6083C12.0138 13.8694 11.7 14 11.3333 14H4.66663ZM11.3333 4H4.66663V12.6667H11.3333V4ZM5.99996 11.3333H7.33329V5.33333H5.99996V11.3333ZM8.66663 11.3333H9.99996V5.33333H8.66663V11.3333Z" fill="currentColor"/>
  </symbol>
  <symbol id="lang-uk" viewBox="0 0 24 24" fill="none" xmlns="http://www.w3.org/2000/svg">
    <path d="M0 12C0 5.37258 5.37258 0 12 0C18.6274 0 24 5.37258 24 12H0Z" fill="#0057B8" />
    <path d="M0 12H24C24 18.6274 18.6274 24 12 24C5.37258 24 0 18.6274 0 12Z" fill="#FFD700" />
  </symbol>
  <symbol id="lang-ru" viewBox="0 0 24 24" fill="none" xmlns="http://www.w3.org/2000/svg">
  </symbol>
</svg>

